<svg width="1024" height="1024" viewBox="0 0 1024 1024" fill="none" xmlns="http://www.w3.org/2000/svg">
<rect width="1024" height="1024" rx="64" fill="#F9C6D4"/>
<path d="M628.232 882.952C590.5 866.813 561.723 840.35 537.797 808.148C512.322 773.863 493.365 735.937 476.669 696.822C463.317 665.542 451.693 633.611 441.591 601.13C441.181 599.812 440.608 598.546 439.72 596.238C435.773 604.747 432.172 612.421 428.644 620.129C395.082 693.453 363.787 767.768 333.703 842.556C321.92 871.85 301.886 888.105 271.817 893.76C236.269 900.445 201.112 898.898 166.56 888.073C146.8 881.882 131.993 870.068 126.793 848.984C122.807 832.827 125.598 817.159 131.264 801.838C139.011 780.887 148.926 760.887 158.171 740.595C180.159 692.335 202.167 644.085 224.253 595.87C248.225 543.539 272.375 491.29 296.299 438.938C319.574 388.005 342.369 336.856 365.201 285.724C370.378 274.129 369.888 263.497 365.617 252.923C359.21 237.061 348.742 224.775 330.387 222.224C316.131 220.243 303.704 225.322 292.166 232.994C287.635 236.007 283.692 239.894 279.219 243.008C268.381 250.554 255.737 249.916 247.025 241.668C240.984 235.95 238.524 228.578 239.902 220.788C250.251 162.311 279.926 117.606 334.381 91.4458C353.266 82.373 373.672 78.6735 394.678 78.5542C411.198 78.4604 427.672 78.1959 443.83 82.8096C481.115 93.4559 507.263 117.594 526.524 150.267C541.355 175.427 550.992 202.805 560.448 230.225C589.799 315.341 616.055 401.452 642.984 487.349C659.946 541.451 675.94 595.881 695.376 649.177C704.049 672.959 714.404 696.015 729.502 716.581C737.384 727.317 746.674 736.626 759.839 740.496C777.27 745.621 792.312 739.729 806.047 729.175C816.177 721.391 824.319 711.77 831.619 701.371C837.183 693.446 844.194 688.107 854.478 688.178C865.097 688.251 872.706 693.321 877.568 702.304C883.394 713.064 884.391 724.956 883.426 736.867C880.474 773.277 866.204 805.326 843.879 833.723C817.307 867.523 782.348 887.807 739.934 894.964C701.734 901.41 664.52 897.985 628.232 882.952ZM295.812 209.915C312.088 203.363 328.836 200.928 345.493 207.401C368.957 216.517 380.965 235.325 386.302 259.062C388.761 270 387.965 280.374 383.005 290.839C373.525 310.844 364.952 331.279 355.96 351.516C312.258 449.871 266.748 547.397 221.672 645.123C199.394 693.421 177.26 741.786 155.32 790.238C149.412 803.287 144.054 816.631 143.521 831.324C142.906 848.26 149.707 860.589 165.526 867.424C169.242 869.029 172.985 870.705 176.877 871.748C206.947 879.808 237.256 881.366 268.026 875.801C291.4 871.573 307.241 859.273 315.817 836.817C323.938 815.556 333.08 794.68 342.009 773.734C362.193 726.388 381.886 678.83 403.076 631.916C412.772 610.451 422.321 588.92 431.877 567.392C433.902 562.828 436.997 559.895 442.207 560.156C447.199 560.406 450.153 563.209 451.683 569.017C464.588 617.998 482.357 665.214 503.583 711.14C519.266 745.071 537.011 777.833 560.872 806.888C579.897 830.054 601.89 849.668 629.099 862.859C658.965 877.338 690.589 881.394 723.362 878.555C743.802 876.785 763.269 871.467 781.356 861.821C825.452 838.303 849.988 800.031 862.145 752.849C865.18 741.068 866.396 728.902 863.526 716.758C862.496 712.4 860.966 707.951 856.037 706.908C851.051 705.853 848.583 709.913 846.098 713.334C835.553 727.852 823.341 740.613 808.063 750.292C783.755 765.69 753.975 764.025 731.74 745.823C718.196 734.735 708.759 720.442 700.505 705.293C685.437 677.637 674.7 648.165 665.15 618.293C646.166 558.912 627.792 499.336 608.918 439.919C587.353 372.032 566.767 303.825 543.099 236.621C533.567 209.558 524.281 182.341 509.115 157.715C494.184 133.468 474.96 114.028 447.587 103.929C430.447 97.605 412.67 96.2668 394.633 96.9906C374.807 97.7863 355.583 101.509 337.717 110.401C304.807 126.781 282.533 153.058 268.205 186.473C263.522 197.394 260.124 208.723 258.371 220.509C257.915 223.578 258.063 226.68 260.714 228.598C263.39 230.533 266.133 228.88 268.57 227.508C270.184 226.598 271.616 225.343 273.063 224.161C279.861 218.61 287.098 213.761 295.812 209.915Z" fill="black"/>
<path d="M530.669 476.373C536.341 481.338 536.376 488.076 536.838 494.288C537.918 508.827 537.071 523.267 531.506 537.029C525.688 551.419 515.398 560.896 499.899 563.125C484.104 565.397 471.117 559.411 461.351 546.836C451.416 534.041 447.534 519.084 446.719 503.227C446.488 498.75 445.619 494.288 446.488 489.714C447.822 482.697 452.262 479.063 459.381 479.961C469.113 481.189 478.806 482.472 488.677 482.345C498.05 482.224 506.884 480.353 515.358 476.439C520.296 474.159 525.306 472.488 530.669 476.373ZM509.893 540.342C512.146 537.722 513.911 534.835 515.205 531.601C516.126 529.302 515.404 527.936 513.322 527.199C500.033 522.498 486.798 522.305 473.695 527.916C471.476 528.867 470.738 530.245 472.131 532.69C479.305 545.279 495.957 552.219 509.893 540.342Z" fill="black"/>
<path d="M437.45 449.761C432.152 432.675 418.127 427.325 406.89 428.008C389.2 429.084 376.846 439.95 374.131 455.455C373.783 457.445 373.481 459.475 372.826 461.373C371.359 465.624 368.061 467.523 363.747 467.212C359.331 466.894 357.197 463.958 356.754 459.756C355.313 446.074 361.024 435.09 370.336 425.836C387.025 409.253 414.443 405.792 434.778 417.8C446.271 424.587 453.177 434.848 454.885 448.279C455.629 454.124 453.741 457.384 449.245 458.484C443.982 459.772 440.192 457.509 438.168 451.868C437.958 451.281 437.757 450.691 437.45 449.761Z" fill="black"/>
<path d="M549.078 403.497C570.396 402.349 590.225 416.621 593.928 441.086C595.044 448.459 591.378 453.275 584.651 452.898C579.977 452.637 577.79 450.333 576.836 444.666C574.773 432.419 566.224 423.241 554.32 420.7C547.043 419.146 540.819 421.884 535.197 426.127C528.752 430.992 524.852 437.658 522.515 445.299C522.151 446.489 521.896 447.719 521.451 448.876C519.715 453.386 516.247 455.381 511.505 454.669C507.536 454.073 504.952 451.048 504.758 446.375C504.463 439.248 507.047 432.859 510.694 426.996C519.423 412.966 531.382 403.904 549.078 403.497Z" fill="black"/>
</svg>
